<svg width="150" height="150" viewBox="0 0 150 150" fill="none" xmlns="http://www.w3.org/2000/svg">
<rect width="150" height="150" rx="20" fill="#2DE08D"/>
<path d="M46.7 111.5V111L49.75 110.25V77.35L46.7 76.6V76.1H74.9L73.2 88.6H72.55L70.95 80.55C70.65 79.25 70.1333 78.3167 69.4 77.75C68.6667 77.15 67.7667 76.85 66.7 76.85H55.5V93.15H61.85C62.3167 93.15 62.75 93.0333 63.15 92.8C63.55 92.5333 63.9167 92.2167 64.25 91.85C64.7167 91.3167 65.1167 90.5667 65.45 89.6C65.8167 88.6333 66.0167 87.5833 66.05 86.45H66.55V98.9H66.05L62.5 93.8H55.5V110.35L58.55 111V111.5H46.7Z" fill="black"/>
<path d="M77.7 77.5V77L80.75 76.25V43.35L77.7 42.6V42.1H105.9L104.2 54.6H103.55L101.95 46.55C101.65 45.25 101.133 44.3167 100.4 43.75C99.6667 43.15 98.7667 42.85 97.7 42.85H86.5V59.15H92.85C93.3167 59.15 93.75 59.0333 94.15 58.8C94.55 58.5333 94.9167 58.2167 95.25 57.85C95.7167 57.3167 96.1167 56.5667 96.45 55.6C96.8167 54.6333 97.0167 53.5833 97.05 52.45H97.55V64.9H97.05L93.5 59.8H86.5V76.35L89.55 77V77.5H77.7Z" fill="#F0F0F0"/>
</svg>
